<svg width="33" height="32" viewBox="0 0 33 32" fill="none" xmlns="http://www.w3.org/2000/svg">
<rect x="4.80786" y="25.2312" width="23.3846" height="2.46154" rx="0.501124" stroke="#FFEBBC" stroke-width="1.35385"/>
<path d="M7.26904 12.925V25.2327" stroke="#FFEBBC" stroke-width="1.35385" stroke-linecap="round" stroke-linejoin="round"/>
<path d="M10.9617 12.925V25.2327" stroke="#FFEBBC" stroke-width="1.35385" stroke-linecap="round" stroke-linejoin="round"/>
<path d="M14.6538 12.925V25.2327" stroke="#FFEBBC" stroke-width="1.35385" stroke-linecap="round" stroke-linejoin="round"/>
<path d="M18.3462 12.925V25.2327" stroke="#FFEBBC" stroke-width="1.35385" stroke-linecap="round" stroke-linejoin="round"/>
<path d="M22.0383 12.925V25.2327" stroke="#FFEBBC" stroke-width="1.35385" stroke-linecap="round" stroke-linejoin="round"/>
<path d="M25.731 12.925V25.2327" stroke="#FFEBBC" stroke-width="1.35385" stroke-linecap="round" stroke-linejoin="round"/>
<path d="M5.42325 10.0497H7.37837C7.4963 10.0497 7.61174 10.0159 7.71096 9.95212L16.1676 4.5198C16.3702 4.38964 16.6301 4.38964 16.8328 4.5198L25.2894 9.95212C25.3886 10.0159 25.504 10.0497 25.622 10.0497H27.5771C27.917 10.0497 28.1925 10.3253 28.1925 10.6651V12.3062C28.1925 12.646 27.917 12.9215 27.5771 12.9215H5.42325C5.08338 12.9215 4.80786 12.646 4.80786 12.3062V10.6651C4.80786 10.3253 5.08338 10.0497 5.42325 10.0497Z" stroke="#FFEBBC" stroke-width="1.35385" stroke-linecap="round" stroke-linejoin="round"/>
<circle opacity="0.4" cx="1.23077" cy="1.23077" r="1.23077" transform="matrix(1 0 0 -1 15.269 11.075)" fill="#FFEBBC"/>
</svg>
