<svg width="41" height="40" viewBox="0 0 41 40" fill="none" xmlns="http://www.w3.org/2000/svg">
<path fill-rule="evenodd" clip-rule="evenodd" d="M11.8715 9.92334C11.4042 9.92334 11.0254 10.3022 11.0254 10.7695C11.0254 11.2368 11.4042 11.6156 11.8715 11.6156H34.9485C35.3308 11.6156 35.6408 11.9256 35.6408 12.308V27.6926C35.6408 28.0749 35.3308 28.3849 34.9485 28.3849H20.3596H11.8715C11.4042 28.3849 11.0254 28.7637 11.0254 29.231C11.0254 29.6983 11.4042 30.0772 11.8715 30.0772H20.3596H34.9485C36.2655 30.0772 37.3331 29.0096 37.3331 27.6926V12.308C37.3331 10.991 36.2655 9.92334 34.9485 9.92334H11.8715ZM22.6253 17.4104L22.6254 18.2985H25.9251C25.6722 17.7726 25.1345 17.4104 24.5131 17.4104H22.6253ZM20.7273 18.2985H21.1177L21.1176 16.7382C21.1176 16.4907 21.2368 16.2712 21.4209 16.1337C21.5443 16.0338 21.7014 15.9739 21.8726 15.9739H24.5131C25.9366 15.9739 27.131 16.9652 27.4387 18.2985H27.8974C28.2718 18.2985 28.5753 18.602 28.5753 18.9763C28.5753 19.3507 28.2718 19.6542 27.8974 19.6542H27.4388C27.1318 20.9844 25.9398 21.9788 24.5131 21.9788H22.6256L22.6257 23.9606C22.6257 24.3769 22.2882 24.7144 21.8719 24.7144C21.4555 24.7145 21.118 24.377 21.118 23.9606L21.1178 19.6542H20.7273C20.353 19.6542 20.0495 19.3507 20.0495 18.9763C20.0495 18.602 20.353 18.2985 20.7273 18.2985ZM24.5131 20.5423C25.1357 20.5423 25.6726 20.1792 25.9252 19.6542H22.6254L22.6255 20.5423H24.5131Z" fill="white"/>
<path opacity="0.4" fill-rule="evenodd" clip-rule="evenodd" d="M8.02612 14.5381C7.5588 14.5381 7.17997 14.9169 7.17997 15.3842C7.17997 15.8516 7.5588 16.2304 8.02612 16.2304L12.6415 16.2304C13.1088 16.2304 13.4877 15.8516 13.4877 15.3842C13.4877 14.9169 13.1088 14.5381 12.6415 14.5381H8.02612ZM4.87242 19.9998C4.87242 19.5325 5.25126 19.1537 5.71858 19.1537L11.8724 19.1537C12.3397 19.1537 12.7186 19.5325 12.7186 19.9998C12.7186 20.4671 12.3397 20.846 11.8724 20.846L5.71858 20.846C5.25126 20.846 4.87242 20.4671 4.87242 19.9998ZM3.33374 24.6149C3.33374 24.1476 3.71258 23.7687 4.17989 23.7687L11.8722 23.7687C12.3395 23.7687 12.7184 24.1476 12.7184 24.6149C12.7184 25.0822 12.3395 25.4611 11.8722 25.4611H4.17989C3.71258 25.4611 3.33374 25.0822 3.33374 24.6149Z" fill="white"/>
</svg>
