<svg width="33" height="32" viewBox="0 0 33 32" fill="none" xmlns="http://www.w3.org/2000/svg">
<path fill-rule="evenodd" clip-rule="evenodd" d="M5.7662 4.98153V6.70894H26.5662V4.98153H5.7662ZM5.7662 9.78394V8.06278H26.5662V9.78394H5.7662ZM5.7662 11.1378V12.8585H26.5662V11.1378H5.7662ZM4.41235 4.91999C4.41235 4.20627 4.99094 3.62769 5.70466 3.62769H26.6277C27.3415 3.62769 27.92 4.20627 27.92 4.91999V12.92C27.92 13.6337 27.3415 14.2123 26.6277 14.2123H26.0738V16.0513C28.1312 16.3762 29.7043 18.1574 29.7043 20.3061C29.7043 22.4547 28.1312 24.2359 26.0738 24.5608V27.0152H27.8587C28.2325 27.0152 28.5356 27.3183 28.5356 27.6921C28.5356 28.066 28.2325 28.369 27.8587 28.369H4.47404C4.10019 28.369 3.79712 28.066 3.79712 27.6921C3.79712 27.3183 4.10019 27.0152 4.47404 27.0152H6.25845V14.2123H5.70466C4.99094 14.2123 4.41235 13.6337 4.41235 12.92V4.91999ZM24.72 24.5609C22.6623 24.2363 21.0889 22.4549 21.0889 20.3061C21.0889 18.1572 22.6623 16.3758 24.72 16.0512V14.2128H7.61229V27.0128H24.72V24.5609ZM13.7047 17.294C12.7191 17.294 11.9201 18.093 11.9201 19.0786V24.3094C11.9201 24.4454 12.0303 24.5556 12.1663 24.5556H17.7047C17.8407 24.5556 17.9509 24.4454 17.9509 24.3094V19.0786C17.9509 18.093 17.1519 17.294 16.1663 17.294H13.7047ZM10.5663 19.0786C10.5663 17.3453 11.9714 15.9402 13.7047 15.9402H16.1663C17.8996 15.9402 19.3047 17.3453 19.3047 19.0786V24.3094C19.3047 25.1931 18.5884 25.9094 17.7047 25.9094H12.1663C11.2826 25.9094 10.5663 25.1931 10.5663 24.3094V19.0786ZM27.5396 19.9328C27.5011 19.9199 27.4606 19.9143 27.4212 19.9142L25.8598 19.8714C25.6119 19.8653 25.405 20.0594 25.399 20.3072C25.393 20.5551 25.587 20.762 25.8349 20.7681L25.8373 20.7687L26.8803 20.7961C26.6593 21.4643 25.9993 21.9282 25.2535 21.8597C24.4537 21.7872 23.8315 21.1005 23.8339 20.2975C23.8365 19.4158 24.565 18.7155 25.4407 18.7401C25.7378 18.7488 26.018 18.8397 26.259 18.9988C26.4373 19.1175 26.6701 19.1011 26.8252 18.9535C27.0321 18.7595 27.0101 18.4201 26.7741 18.2623C26.1584 17.8452 25.3699 17.7206 24.5862 17.9701C23.9095 18.1827 23.3668 18.6991 23.1132 19.3612C22.4619 21.067 23.6843 22.7181 25.3263 22.7642C26.6842 22.8024 27.8195 21.7306 27.8577 20.3726C27.864 20.1826 27.7453 19.9984 27.5396 19.9328Z" fill="#86E3AD"/>
<path opacity="0.4" fill-rule="evenodd" clip-rule="evenodd" d="M14.936 22.1564C15.9556 22.1564 16.7822 21.3299 16.7822 20.3103C16.7822 19.2907 15.9556 18.4641 14.936 18.4641C13.9164 18.4641 13.0898 19.2907 13.0898 20.3103C13.0898 21.3299 13.9164 22.1564 14.936 22.1564ZM13.7054 22.7704C13.0256 22.7704 12.4746 23.3214 12.4746 24.0011V25.2319H17.3977V24.0011C17.3977 23.3214 16.8467 22.7704 16.1669 22.7704H13.7054Z" fill="#86E3AD"/>
</svg>
