<svg width="40" height="40" viewBox="0 0 40 40" fill="none" xmlns="http://www.w3.org/2000/svg">
<path opacity="0.4" fill-rule="evenodd" clip-rule="evenodd" d="M16.1523 32.3076C16.1523 31.8827 16.5623 31.5383 17.0681 31.5383H22.9289C23.4347 31.5383 23.8447 31.8827 23.8447 32.3076C23.8447 32.7324 23.4347 33.0768 22.9289 33.0768H17.0681C16.5623 33.0768 16.1523 32.7324 16.1523 32.3076Z" fill="white"/>
<path fill-rule="evenodd" clip-rule="evenodd" d="M30.8447 6.7033C30.8447 4.65802 29.1866 3 27.1414 3H12.8556C10.8104 3 9.15234 4.65802 9.15234 6.7033V8.51282V33.2967C9.15234 35.342 10.8104 37 12.8556 37H27.1414C29.1861 37 30.8447 35.3438 30.8447 33.2981V33.1202V33.0294V32.9836V32.9721V32.9606V32.9375V32.5574V32.5452V32.533V32.5086V32.4963V32.484V32.4717V32.4594V32.4347V32.4224V32.41V32.3602V32.2599V32.2092V32.1965V32.1838V32.1711V32.1583V32.1327V32.1199V32.1071V32.0814V32.0556V31.9517V31.7404V29.888V29.6368V29.3814V29.3492V29.333V29.3169V29.2521V29.2196V29.2033V29.1871V29.1218V29.0562V29.0398V29.0233V28.9904V28.9243V28.9078V28.8912V28.858V28.7914V28.758V28.7413V28.7246V28.6575V28.5901V28.5732V28.5563V28.5225V28.4547V28.4206V28.4036V28.3865V28.3182V28.2496V28.2324V28.2152V28.1807V28.0422V28.0248V28.0075V27.9726V27.9028V27.8326V27.8151V27.7975V27.7623V27.6208V27.5853V27.5675V27.5498V27.4784V27.335V27.299V27.281V27.263V27.1907V27.0453V26.9723V26.954V26.9357V26.899V26.7518V26.6036V26.585V26.5664V26.5292V26.4545V26.3044V26.1534V26.0015V25.9634V25.9443V25.9252V25.8486V25.7719V25.6949V25.5402V25.4625V25.4236V25.4041V25.3846C30.8447 24.9173 30.4658 24.5385 29.9985 24.5385C29.5312 24.5385 29.1523 24.9173 29.1523 25.3846V25.4041V25.4236V25.4625V25.5402V25.6949V25.7719V25.8486V25.9252V25.9443V25.9634V26.0015V26.1534V26.3044V26.4545V26.5292V26.5664V26.585V26.6036V26.7518V26.899V26.9357V26.954V26.9723V27.0453V27.1907V27.263V27.281V27.299V27.335V27.4784V27.5498V27.5675V27.5853V27.6208V27.7623V27.7975V27.8151V27.8326V27.9028V27.9726V28.0075V28.0248V28.0422V28.1807V28.2152V28.2324V28.2496V28.3182V28.3865V28.4036V28.4206V28.4547V28.5225V28.5563V28.5732V28.5901V28.6575V28.7246V28.7413V28.758V28.7914V28.858V28.8912V28.9078V28.9243V28.9904V29.0233V29.0398V29.0562V29.1218V29.1871V29.2033V29.2196V29.2521V29.3169V29.333V29.3492V29.3814V29.6368V29.888V31.7404V31.9517V32.0556V32.0814V32.1071V32.1199V32.1327V32.1583V32.1711V32.1838V32.1965V32.2092V32.2599V32.3602V32.41V32.4224V32.4347V32.4594V32.4717V32.484V32.4963V32.5086V32.533V32.5452V32.5574V32.9375V32.9606V32.9721V32.9836V33.0294V33.1202V33.2981C29.1523 34.4082 28.2525 35.3077 27.1414 35.3077H12.8556C11.745 35.3077 10.8447 34.4073 10.8447 33.2967V8.51282V6.7033C10.8447 5.59266 11.745 4.69231 12.8556 4.69231H27.1414C28.252 4.69231 29.1523 5.59266 29.1523 6.7033V13.0769C29.1523 13.5442 29.5312 13.9231 29.9985 13.9231C30.4658 13.9231 30.8447 13.5442 30.8447 13.0769V6.7033ZM27.1469 18.6863C26.8465 18.9867 26.8465 19.4737 27.1469 19.7741L29.5157 22.1428C29.8161 22.4432 30.3031 22.4432 30.6035 22.1428C30.9039 21.8424 30.9039 21.3554 30.6035 21.055L29.5788 20.0303H36.1522C36.577 20.0303 36.9214 19.6859 36.9214 19.2611C36.9214 18.8362 36.577 18.4918 36.1522 18.4918H29.5171L30.6035 17.4054C30.9039 17.105 30.9039 16.618 30.6035 16.3175C30.3031 16.0171 29.8161 16.0171 29.5157 16.3175L27.1469 18.6863ZM16.9216 24.629C16.9216 25.0499 17.2665 25.3842 17.7135 25.3842C18.1478 25.3842 18.4927 25.0499 18.4927 24.629V22.3073H19.4989C21.1344 22.3073 22.5226 21.4169 22.9442 19.9995H23.8445C24.2693 19.9995 24.6137 19.6552 24.6137 19.2303C24.6137 18.8055 24.2693 18.4611 23.8445 18.4611H23.0224C22.7585 17.0503 21.5266 16.1535 19.6778 16.1535H17.7135C17.2665 16.1535 16.9216 16.4878 16.9216 16.9211V18.4611H16.1522C15.7273 18.4611 15.3829 18.8055 15.3829 19.2303C15.3829 19.6552 15.7273 19.9995 16.1522 19.9995H16.9216V24.629ZM19.55 17.5401C20.4532 17.5401 21.1074 17.8546 21.3618 18.4611H18.4927V17.5401H19.55ZM21.235 19.9995H18.4927V20.933H19.55C20.3354 20.933 20.9254 20.5323 21.235 19.9995Z" fill="white"/>
</svg>
