<svg width="41" height="40" viewBox="0 0 41 40" fill="none" xmlns="http://www.w3.org/2000/svg">
<path fill-rule="evenodd" clip-rule="evenodd" d="M11.8735 9.9231C11.4062 9.9231 11.0273 10.3019 11.0273 10.7692C11.0273 11.2366 11.4062 11.6154 11.8735 11.6154H34.9504C35.3328 11.6154 35.6427 11.9254 35.6427 12.3077V27.6923C35.6427 28.0747 35.3328 28.3846 34.9504 28.3846H20.3616H11.8735C11.4062 28.3846 11.0273 28.7635 11.0273 29.2308C11.0273 29.6981 11.4062 30.0769 11.8735 30.0769H20.3616H34.9504C36.2674 30.0769 37.335 29.0093 37.335 27.6923V12.3077C37.335 10.9907 36.2674 9.9231 34.9504 9.9231H11.8735ZM22.6273 17.4102L22.6273 18.2982H25.9271C25.6742 17.7724 25.1365 17.4102 24.515 17.4102H22.6273ZM20.7293 18.2982H21.1196L21.1196 16.7379C21.1195 16.4905 21.2387 16.2709 21.4228 16.1335C21.5462 16.0335 21.7034 15.9736 21.8746 15.9736H24.515C25.9386 15.9736 27.133 16.9649 27.4406 18.2982H27.8993C28.2737 18.2982 28.5772 18.6017 28.5772 18.9761C28.5772 19.3505 28.2737 19.654 27.8993 19.654H27.4408C27.1337 20.9842 25.9418 21.9786 24.515 21.9786H22.6275L22.6276 23.9603C22.6276 24.3766 22.2902 24.7142 21.8738 24.7142C21.4575 24.7142 21.12 24.3767 21.1199 23.9604L21.1197 19.654H20.7293C20.3549 19.654 20.0514 19.3505 20.0514 18.9761C20.0514 18.6017 20.3549 18.2982 20.7293 18.2982ZM24.515 20.5421C25.1377 20.5421 25.6746 20.179 25.9271 19.654H22.6274L22.6274 20.5421H24.515Z" fill="white"/>
<path opacity="0.4" fill-rule="evenodd" clip-rule="evenodd" d="M8.02832 14.5381C7.561 14.5381 7.18216 14.9169 7.18216 15.3842C7.18216 15.8516 7.561 16.2304 8.02832 16.2304L12.6437 16.2304C13.111 16.2304 13.4899 15.8516 13.4899 15.3842C13.4899 14.9169 13.111 14.5381 12.6437 14.5381H8.02832ZM4.87462 19.9998C4.87462 19.5325 5.25345 19.1537 5.72077 19.1537L11.8746 19.1537C12.3419 19.1537 12.7208 19.5325 12.7208 19.9998C12.7208 20.4671 12.3419 20.846 11.8746 20.846L5.72077 20.846C5.25345 20.846 4.87462 20.4671 4.87462 19.9998ZM3.33594 24.6149C3.33594 24.1476 3.71477 23.7687 4.18209 23.7687L11.8744 23.7687C12.3417 23.7687 12.7206 24.1476 12.7206 24.6149C12.7206 25.0822 12.3417 25.4611 11.8744 25.4611H4.18209C3.71477 25.4611 3.33594 25.0822 3.33594 24.6149Z" fill="white"/>
</svg>
