<svg width="33" height="32" viewBox="0 0 33 32" fill="none" xmlns="http://www.w3.org/2000/svg">
<path opacity="0.4" fill-rule="evenodd" clip-rule="evenodd" d="M27.9716 11.6869C27.9716 10.2934 26.842 9.16382 25.4485 9.16382H17.2981H8.21775C8.0266 9.16382 7.84041 9.18508 7.66142 9.22536L6.19553 9.22536C4.5933 9.22536 3.29443 10.5242 3.29443 12.1265V21.533C3.29443 23.9121 5.22305 25.8407 7.60213 25.8407H15.2944H26.6791C27.0189 25.8407 27.2944 25.5652 27.2944 25.2254C27.2944 24.8855 27.0189 24.61 26.6791 24.61H15.2944L7.60213 24.61C5.90279 24.61 4.5252 23.2324 4.5252 21.533L4.5252 12.1265C4.5252 11.267 5.17428 10.5592 6.00897 10.4664C5.80869 10.8281 5.69467 11.2442 5.69467 11.6869L5.69467 20.9177C5.69467 22.3111 6.82429 23.4407 8.21775 23.4407L16.8331 23.4407H25.4485C26.842 23.4407 27.9716 22.3111 27.9716 20.9177L27.9716 11.6869ZM25.4485 10.5177C26.0943 10.5177 26.6178 11.0411 26.6178 11.6869V20.9177C26.6178 21.5634 26.0943 22.0869 25.4485 22.0869H16.8331L8.21775 22.0869C7.572 22.0869 7.04852 21.5634 7.04852 20.9177L7.04852 11.6869C7.04852 11.0411 7.572 10.5177 8.21775 10.5177L17.2981 10.5177L25.4485 10.5177Z" fill="#E4FFBF"/>
<path fill-rule="evenodd" clip-rule="evenodd" d="M6.9871 15.3831L0.833252 9.84461L6.9871 4.30615V6.15279L11.6024 6.15279C12.1122 6.15279 12.5254 6.56606 12.5254 7.07587L12.5254 12.6143C12.5254 13.1241 12.1122 13.5374 11.6024 13.5374L6.9871 13.5374V15.3831ZM15.2895 19.0759C15.0295 19.0759 14.829 18.8753 14.829 18.6227V15.8383H14.2137C13.9612 15.8383 13.7566 15.6336 13.7566 15.3812C13.7566 15.1287 13.9612 14.924 14.2137 14.924H14.829V13.998C14.829 13.738 15.0295 13.5374 15.2895 13.5374H16.8792C17.9553 13.5374 18.6721 14.0764 18.8247 14.924H19.1368C19.3893 14.924 19.5939 15.1287 19.5939 15.3812C19.5939 15.6336 19.3893 15.8383 19.1368 15.8383H18.7809C18.538 16.6926 17.7289 17.2297 16.7752 17.2297H15.7427V18.6227C15.7427 18.8753 15.5421 19.0759 15.2895 19.0759ZM17.8595 14.924C17.7121 14.5588 17.3312 14.3694 16.805 14.3694H15.7427V14.924H17.8595ZM15.7427 15.8383H17.7887C17.6096 16.1613 17.2649 16.4051 16.805 16.4051H15.7427V15.8383ZM32.8336 22.1536L26.6798 16.6152V18.4608H22.0645C21.5547 18.4608 21.1415 18.8741 21.1415 19.3839V24.9224C21.1415 25.4322 21.5547 25.8455 22.0645 25.8455H26.6798V27.6921L32.8336 22.1536Z" fill="#E4FFBF"/>
</svg>
