<svg width="39" height="39" viewBox="0 0 39 39" fill="none" xmlns="http://www.w3.org/2000/svg">
<path opacity="0.4" fill-rule="evenodd" clip-rule="evenodd" d="M16.1132 10.1365C16.1132 8.16748 17.7095 6.57123 19.6785 6.57123C21.6476 6.57123 23.2439 8.16748 23.2439 10.1365V10.1991V12.0501C23.2439 12.4999 23.6085 12.8645 24.0583 12.8645C24.5081 12.8645 24.8727 12.4999 24.8727 12.0501V10.1991V10.1365C24.8727 7.26789 22.5472 4.94238 19.6785 4.94238C16.8099 4.94238 14.4844 7.26789 14.4844 10.1365V10.1991V12.0501C14.4844 12.4999 14.849 12.8645 15.2988 12.8645C15.7486 12.8645 16.1132 12.4999 16.1132 12.0501V10.1991V10.1365ZM21.8882 12.3462C22.2971 12.3462 22.6286 12.6776 22.6286 13.0865V14.4934L22.9493 14.4934C23.496 14.4934 24.0024 14.7804 24.2833 15.2493L25.4122 17.1342C25.6256 17.4906 25.7383 17.8982 25.7383 18.3135L25.7382 24.7889C25.7382 25.7299 24.975 26.4925 24.034 26.4917L19.8878 26.4884C18.9479 26.4876 18.1863 25.7254 18.1863 24.7855L18.1863 18.2752C18.1863 17.8928 18.2819 17.5164 18.4644 17.1803L19.4815 15.3064C19.7535 14.8054 20.2779 14.4934 20.8481 14.4934L21.1478 14.4934V13.0865C21.1478 12.6776 21.4793 12.3462 21.8882 12.3462ZM21.1478 17.5288V16.1223L20.892 16.1222L19.8959 17.9573C19.8429 18.0549 19.8152 18.1642 19.8152 18.2752L19.8151 24.7855C19.8151 24.8264 19.8483 24.8595 19.8891 24.8596L24.0353 24.8629C24.0762 24.8629 24.1094 24.8298 24.1094 24.7889L24.1094 18.3135C24.1094 18.1929 24.0767 18.0746 24.0148 17.9711L22.9075 16.1222L22.6286 16.1223V17.5288C22.6286 17.9378 22.2971 18.2692 21.8882 18.2692C21.4793 18.2692 21.1478 17.9378 21.1478 17.5288Z" fill="white"/>
<path fill-rule="evenodd" clip-rule="evenodd" d="M12.8587 13.1603C12.5172 13.1603 12.231 13.4185 12.1958 13.7581L10.2811 32.2677C10.2404 32.6608 10.5487 33.0026 10.9439 33.0026H28.3909C28.7861 33.0026 29.0944 32.6608 29.0537 32.2677L27.139 13.7581C27.1038 13.4185 26.8176 13.1603 26.4761 13.1603H12.8587ZM10.5756 13.5905C10.6967 12.4206 11.6825 11.5315 12.8587 11.5315H26.4761C27.6523 11.5315 28.6381 12.4206 28.7591 13.5905L30.6739 32.1001C30.814 33.4539 29.7519 34.6315 28.3909 34.6315H10.9439C9.58286 34.6315 8.52081 33.4539 8.66086 32.1001L10.5756 13.5905Z" fill="white"/>
</svg>
