<svg width="16" height="16" viewBox="0 0 16 16" fill="none" xmlns="http://www.w3.org/2000/svg">
<path fill-rule="evenodd" clip-rule="evenodd" d="M12.638 4.63613C12.9894 4.28466 12.9894 3.71481 12.638 3.36334C12.2865 3.01186 11.7166 3.01186 11.3652 3.36334L8.00156 6.72694L4.63796 3.36334C4.28649 3.01186 3.71664 3.01186 3.36517 3.36334C3.01369 3.71481 3.01369 4.28466 3.36517 4.63613L6.72877 7.99973L3.36517 11.3633C3.01369 11.7148 3.01369 12.2847 3.36517 12.6361C3.71664 12.9876 4.28649 12.9876 4.63796 12.6361L8.00156 9.27252L11.3652 12.6361C11.7166 12.9876 12.2865 12.9876 12.638 12.6361C12.9894 12.2847 12.9894 11.7148 12.638 11.3633L9.27435 7.99973L12.638 4.63613Z" fill="#062413"/>
</svg>
