<svg width="40" height="41" viewBox="0 0 40 41" fill="none" xmlns="http://www.w3.org/2000/svg">
<path fill-rule="evenodd" clip-rule="evenodd" d="M11.5376 10.6128C11.0702 10.6128 10.6914 10.9916 10.6914 11.4589C10.6914 11.9263 11.0702 12.3051 11.5376 12.3051H34.6145C34.9968 12.3051 35.3068 12.6151 35.3068 12.9974V28.382C35.3068 28.7644 34.9968 29.0743 34.6145 29.0743H20.0256H11.5376C11.0702 29.0743 10.6914 29.4532 10.6914 29.9205C10.6914 30.3878 11.0702 30.7666 11.5376 30.7666H20.0256H34.6145C35.9315 30.7666 36.9991 29.699 36.9991 28.382V12.9974C36.9991 11.6804 35.9315 10.6128 34.6145 10.6128H11.5376ZM22.2913 18.0998L22.2914 18.9879H25.5911C25.3383 18.4621 24.8005 18.0998 24.1791 18.0998H22.2913ZM20.3934 18.9879H20.7837L20.7836 17.4276C20.7836 17.1802 20.9028 16.9606 21.0869 16.8232C21.2103 16.7232 21.3675 16.6633 21.5386 16.6633H24.1791C25.6026 16.6633 26.797 17.6546 27.1047 18.9879H27.5634C27.9378 18.9879 28.2413 19.2914 28.2413 19.6658C28.2413 20.0402 27.9378 20.3437 27.5634 20.3437H27.1048C26.7978 21.6739 25.6058 22.6683 24.1791 22.6683H22.2916L22.2917 24.65C22.2917 25.0663 21.9542 25.4039 21.5379 25.4039C21.1215 25.4039 20.784 25.0664 20.784 24.6501L20.7838 20.3437H20.3934C20.019 20.3437 19.7155 20.0402 19.7155 19.6658C19.7155 19.2914 20.019 18.9879 20.3934 18.9879ZM24.1791 21.2318C24.8017 21.2318 25.3387 20.8687 25.5912 20.3437H22.2915L22.2915 21.2318H24.1791Z" fill="white"/>
<path opacity="0.4" fill-rule="evenodd" clip-rule="evenodd" d="M7.69238 15.2275C7.22506 15.2275 6.84623 15.6064 6.84623 16.0737C6.84623 16.541 7.22506 16.9198 7.69238 16.9198L12.3078 16.9198C12.7751 16.9198 13.1539 16.541 13.1539 16.0737C13.1539 15.6064 12.7751 15.2275 12.3078 15.2275H7.69238ZM4.53868 20.6893C4.53868 20.2219 4.91752 19.8431 5.38484 19.8431L11.5387 19.8431C12.006 19.8431 12.3848 20.2219 12.3848 20.6893C12.3848 21.1566 12.006 21.5354 11.5387 21.5354L5.38484 21.5354C4.91752 21.5354 4.53868 21.1566 4.53868 20.6893ZM3 25.3044C3 24.837 3.37884 24.4582 3.84615 24.4582L11.5385 24.4582C12.0058 24.4582 12.3846 24.837 12.3846 25.3044C12.3846 25.7717 12.0058 26.1505 11.5385 26.1505H3.84615C3.37884 26.1505 3 25.7717 3 25.3044Z" fill="white"/>
</svg>
