<svg width="40" height="41" viewBox="0 0 40 41" fill="none" xmlns="http://www.w3.org/2000/svg">
<path opacity="0.4" d="M30.0003 32.6702C30.0003 35.5378 27.9339 37.8625 25.3849 37.8625C22.8359 37.8625 20.7695 35.5378 20.7695 32.6702C20.7695 30.7 22.9481 27.3523 24.3117 25.4498C24.846 24.7043 25.9239 24.7043 26.4582 25.4498C27.8218 27.3523 30.0003 30.7 30.0003 32.6702Z" fill="white"/>
<path fill-rule="evenodd" clip-rule="evenodd" d="M13.0769 11.0352C10.3193 13.1283 8.53846 16.4414 8.53846 20.1704C8.53846 23.267 9.76645 26.0768 11.762 28.1393C12.2048 27.69 12.6428 27.2438 13.0769 26.8L13.0769 11.0352ZM14.6154 10.0499L14.6154 25.2215C15.5744 24.2344 16.5212 23.2549 17.4685 22.2747L17.472 22.2711C17.8016 21.9301 18.1313 21.589 18.4615 21.2475L18.4615 8.81127C17.0874 8.99562 15.7904 9.42345 14.6154 10.0499ZM20 8.70891L20 19.6591C21.2525 18.3685 22.5252 17.0649 23.8462 15.7305L23.8462 8.70891H20ZM30.9974 8.70891C28.9884 10.6215 27.1375 12.4343 25.3846 14.1851V8.70891H30.9974ZM20 33.3243C16.9119 33.3243 14.0724 32.2602 11.8281 30.4786C9.55785 32.7641 7.13749 35.1449 4.42763 37.7082C4.08814 38.0294 3.55259 38.0145 3.23145 37.675C2.91031 37.3355 2.92519 36.8 3.26468 36.4788C5.93741 33.9506 8.32702 31.6009 10.5714 29.3424C8.26601 26.9729 6.84616 23.7375 6.84616 20.1704C6.84616 12.9058 12.7353 7.0166 20 7.0166H32.3077C33.1998 7.0166 33.9231 7.73983 33.9231 8.63199V12.4781C33.9231 12.9455 33.5442 13.3243 33.0769 13.3243C32.6096 13.3243 32.2308 12.9455 32.2308 12.4781V9.87131C27.0014 14.8468 22.8489 19.143 18.6853 23.4508L18.6818 23.4544L18.6817 23.4545L18.6817 23.4546L18.6815 23.4548C16.8302 25.3702 14.9766 27.288 13.0265 29.2672C14.9584 30.7504 17.3762 31.632 20 31.632C25.7817 31.632 30.564 27.3506 31.3487 21.7858H26.1538C25.6865 21.7858 25.3077 21.407 25.3077 20.9397C25.3077 20.4724 25.6865 20.0935 26.1538 20.0935H32.284C32.5175 20.0935 32.7406 20.19 32.9005 20.3601C33.0604 20.5301 33.143 20.7587 33.1286 20.9918C32.7042 27.8743 26.9889 33.3243 20 33.3243Z" fill="white"/>
</svg>
