<svg width="33" height="33" viewBox="0 0 33 33" fill="none" xmlns="http://www.w3.org/2000/svg">
<path opacity="0.4" d="M9.66195 14.4385C9.51935 14.9763 9.44336 15.5412 9.44336 16.1239C9.44336 16.7294 9.52545 17.3159 9.6791 17.8726M14.2523 22.4458C14.8091 22.5995 15.3955 22.6815 16.0011 22.6815C16.6066 22.6815 17.193 22.5995 17.7498 22.4458M22.3402 17.8092C22.4828 17.2714 22.5587 16.7065 22.5587 16.1239C22.5587 15.5412 22.4828 14.9763 22.3402 14.4385M17.7498 9.8019C17.193 9.64825 16.6066 9.56616 16.0011 9.56616C15.3955 9.56616 14.8091 9.64825 14.2523 9.8019" stroke="#025AE9" stroke-width="1.31154"/>
<path fill-rule="evenodd" clip-rule="evenodd" d="M9.38389 5.27327C7.04624 5.27327 5.1512 7.16831 5.1512 9.50596C5.1512 11.8436 7.04624 13.7387 9.38389 13.7387C11.7215 13.7387 13.6166 11.8436 13.6166 9.50596C13.6166 7.16831 11.7215 5.27327 9.38389 5.27327ZM4.07812 9.50596C4.07812 6.57567 6.4536 4.2002 9.38389 4.2002C12.3142 4.2002 14.6897 6.57567 14.6897 9.50596C14.6897 12.4363 12.3142 14.8117 9.38389 14.8117C6.4536 14.8117 4.07812 12.4363 4.07812 9.50596ZM8.12026 7.76132C8.12026 7.49792 8.33379 7.2844 8.59718 7.2844H10.258C11.1143 7.2844 11.8332 7.87263 12.0327 8.66705H12.3071C12.554 8.66705 12.7542 8.86723 12.7542 9.11416C12.7542 9.3611 12.554 9.56128 12.3071 9.56128H12.0326C11.833 10.3556 11.1142 10.9437 10.258 10.9437H9.0902L9.09684 12.2323C9.0982 12.4957 8.88578 12.7104 8.62238 12.7119C8.35899 12.7133 8.14437 12.501 8.14301 12.2376L8.13448 10.5828C8.12519 10.5456 8.12026 10.5068 8.12026 10.4667C8.12026 10.4284 8.12478 10.3912 8.1333 10.3555L8.12921 9.56128H7.67082C7.42388 9.56128 7.2237 9.3611 7.2237 9.11416C7.2237 8.86723 7.42388 8.66705 7.67082 8.66705H8.1246L8.12027 7.82676C8.12021 7.81534 8.12055 7.80402 8.12128 7.7928C8.1206 7.78239 8.12026 7.7719 8.12026 7.76132ZM9.08307 9.56128L9.08528 9.9898H10.258C10.5783 9.9898 10.8584 9.81788 11.0112 9.56128H9.08307ZM11.0113 8.66705H9.07846L9.07625 8.23824H10.258C10.5784 8.23824 10.8586 8.41029 11.0113 8.66705ZM22.4975 5.27334C20.1598 5.27334 18.2648 7.16838 18.2648 9.50603C18.2648 11.8437 20.1598 13.7387 22.4975 13.7387C24.8352 13.7387 26.7302 11.8437 26.7302 9.50603C26.7302 7.16838 24.8352 5.27334 22.4975 5.27334ZM17.1917 9.50603C17.1917 6.57574 19.5672 4.20027 22.4975 4.20027C25.4278 4.20027 27.8033 6.57574 27.8033 9.50603C27.8033 12.4363 25.4278 14.8118 22.4975 14.8118C19.5672 14.8118 17.1917 12.4363 17.1917 9.50603ZM22.5029 6.51478C22.7663 6.51478 22.9798 6.72831 22.9798 6.9917V7.12286C22.9798 7.13728 22.9792 7.15155 22.9779 7.16565C23.3182 7.23055 23.6261 7.35973 23.9017 7.54485C24.0125 7.61378 24.1232 7.75852 24.1232 7.96529C24.1232 8.24098 23.9147 8.45464 23.6541 8.45464C23.5564 8.45464 23.4782 8.42707 23.4 8.37883C23.0677 8.17206 22.755 8.05489 22.4423 8.05489C22.0579 8.05489 21.8559 8.24098 21.8559 8.47532V8.4891C21.8559 8.80615 22.0513 8.90953 22.8397 9.1232C23.7649 9.37821 24.2861 9.72972 24.2861 10.5706V10.5844C24.2861 11.4234 23.7564 11.9399 22.9641 12.0553C22.9645 12.0633 22.9647 12.0713 22.9647 12.0793V12.2105C22.9647 12.4739 22.7511 12.6874 22.4877 12.6874C22.2243 12.6874 22.0108 12.4739 22.0108 12.2105V12.0793C22.0108 12.0578 22.0122 12.0367 22.015 12.0159C21.6198 11.9302 21.2372 11.7586 20.8981 11.501C20.7874 11.4183 20.7092 11.2667 20.7092 11.1013C20.7092 10.8256 20.9177 10.6119 21.1783 10.6119C21.3086 10.6119 21.3998 10.6602 21.465 10.7084C21.8103 10.9772 22.1882 11.1426 22.6312 11.1426C23.0417 11.1426 23.2893 10.9703 23.2893 10.6878V10.674C23.2893 10.4052 23.1329 10.2673 22.3706 10.0606C21.4519 9.81243 20.859 9.54363 20.859 8.58559V8.57181C20.859 7.83749 21.3267 7.31174 22.0275 7.16142C22.0265 7.1487 22.026 7.13584 22.026 7.12286V6.99171C22.026 6.72831 22.2395 6.51478 22.5029 6.51478ZM18.2648 22.6217C18.2648 20.2841 20.1598 18.389 22.4975 18.389C24.8352 18.389 26.7302 20.2841 26.7302 22.6217C26.7302 24.9594 24.8352 26.8544 22.4975 26.8544C20.1598 26.8544 18.2648 24.9594 18.2648 22.6217ZM22.4975 17.316C19.5672 17.316 17.1917 19.6914 17.1917 22.6217C17.1917 25.552 19.5672 27.9275 22.4975 27.9275C25.4278 27.9275 27.8033 25.552 27.8033 22.6217C27.8033 19.6914 25.4278 17.316 22.4975 17.316ZM22.5558 19.7605C21.6029 19.7605 20.8475 20.5645 20.907 21.5156L20.9463 22.145H20.7088C20.4454 22.145 20.2319 22.3586 20.2319 22.622C20.2319 22.8854 20.4454 23.0989 20.7088 23.0989H21.006L21.0713 24.1437C21.0842 24.3507 20.9217 24.526 20.7152 24.5296H20.7088C20.4454 24.5296 20.2319 24.7432 20.2319 25.0066C20.2319 25.27 20.4455 25.4835 20.7089 25.4835L20.7211 25.4835H23.6896C23.953 25.4835 24.1665 25.27 24.1665 25.0066C24.1665 24.7432 23.953 24.5296 23.6896 24.5296H21.9752C22.0155 24.389 22.0329 24.2391 22.0232 24.0842L21.9617 23.0989H22.4973C22.7607 23.0989 22.9742 22.8854 22.9742 22.622C22.9742 22.3586 22.7607 22.145 22.4973 22.145H21.902L21.859 21.4561C21.8339 21.0541 22.1531 20.7143 22.5558 20.7143C22.9186 20.7143 23.2127 21.0084 23.2127 21.3712V21.8271C23.2127 22.0905 23.4262 22.304 23.6896 22.304C23.953 22.304 24.1665 22.0905 24.1665 21.8271V21.3712C24.1665 20.4816 23.4453 19.7605 22.5558 19.7605ZM9.38534 18.389C7.04769 18.389 5.15265 20.2841 5.15265 22.6217C5.15265 24.9594 7.04769 26.8544 9.38534 26.8544C11.723 26.8544 13.618 24.9594 13.618 22.6217C13.618 20.2841 11.723 18.389 9.38534 18.389ZM4.07957 22.6217C4.07957 19.6914 6.45505 17.316 9.38534 17.316C12.3156 17.316 14.6911 19.6914 14.6911 22.6217C14.6911 25.552 12.3156 27.9275 9.38534 27.9275C6.45505 27.9275 4.07957 25.552 4.07957 22.6217ZM7.93133 20.4962C7.74508 20.3099 7.44311 20.3099 7.25686 20.4962C7.07061 20.6824 7.07061 20.9844 7.25686 21.1707L8.90635 22.8202L8.90642 23.3373H8.19048C7.92708 23.3373 7.71355 23.5508 7.71355 23.8142C7.71355 24.0776 7.92708 24.2911 8.19048 24.2911H8.90653L8.90662 25.0063C8.90665 25.2697 9.1202 25.4832 9.3836 25.4832C9.647 25.4831 9.8605 25.2696 9.86047 25.0062L9.86038 24.2911H10.5751C10.8385 24.2911 11.052 24.0776 11.052 23.8142C11.052 23.5508 10.8385 23.3373 10.5751 23.3373H9.86026L9.8602 22.8186L11.5081 21.1707C11.6944 20.9844 11.6944 20.6824 11.5081 20.4962C11.3219 20.3099 11.0199 20.3099 10.8337 20.4962L9.38249 21.9474L7.93133 20.4962Z" fill="#62EDF2"/>
</svg>
