<svg width="41" height="41" viewBox="0 0 41 41" fill="none" xmlns="http://www.w3.org/2000/svg">
<path fill-rule="evenodd" clip-rule="evenodd" d="M29.3434 14.5468C28.8761 14.5468 28.4973 14.168 28.4973 13.7006C28.4973 13.2333 28.8761 12.8545 29.3434 12.8545H32.4204C32.8877 12.8545 33.2665 13.2333 33.2665 13.7006V16.7776C33.2665 17.2449 32.8877 17.6237 32.4204 17.6237C31.9531 17.6237 31.5742 17.2449 31.5742 16.7776V15.7434L23.0187 24.299C22.6882 24.6294 22.1525 24.6294 21.8221 24.299L16.6511 19.1281L8.01869 27.7605C7.68825 28.091 7.1525 28.091 6.82205 27.7605C6.49161 27.4301 6.49161 26.8943 6.82205 26.5639L16.0528 17.3331C16.3833 17.0027 16.919 17.0027 17.2495 17.3331L22.4204 22.504L30.3776 14.5468H29.3434Z" fill="#89F2F6"/>
<path opacity="0.4" fill-rule="evenodd" clip-rule="evenodd" d="M20.5006 6.85442C12.8961 6.85442 6.73137 13.0191 6.73137 20.6236C6.73137 21.1138 6.75695 21.5977 6.80678 22.0741C6.85541 22.5389 6.51804 22.955 6.05326 23.0037C5.58848 23.0523 5.17228 22.7149 5.12366 22.2501C5.06772 21.7154 5.03906 21.1727 5.03906 20.6236C5.03906 12.0845 11.9614 5.16211 20.5006 5.16211C24.5925 5.16211 28.3147 6.75277 31.0797 9.34784C31.4204 9.66765 31.4374 10.2031 31.1176 10.5439C30.7978 10.8846 30.2623 10.9016 29.9215 10.5818C27.4578 8.26946 24.1454 6.85442 20.5006 6.85442ZM35.116 19.7775C35.5833 19.7775 35.9621 20.1563 35.9621 20.6236C35.9621 29.1628 29.0398 36.0852 20.5006 36.0852C16.4087 36.0852 12.6865 34.4945 9.92153 31.8995C9.58079 31.5796 9.56382 31.0442 9.88363 30.7034C10.2034 30.3627 10.7389 30.3457 11.0797 30.6655C13.5434 32.9778 16.8558 34.3929 20.5006 34.3929C28.1051 34.3929 34.2698 28.2282 34.2698 20.6236C34.2698 20.1563 34.6487 19.7775 35.116 19.7775ZM19.5635 8.55047L19.0701 11.2574C19.0175 11.5462 18.6884 11.6892 18.4414 11.5305C18.1642 11.3525 17.8004 11.5552 17.806 11.8847L17.8565 14.8345C17.8579 14.9164 17.8811 14.9965 17.9236 15.0664L18.9199 16.7051C18.9462 16.7484 18.9795 16.7871 19.0184 16.8195L21.2693 18.7004L22.5683 19.6598C22.726 19.7763 22.9401 19.7804 23.1022 19.6701L23.8982 19.1283C23.9402 19.0997 23.9772 19.0643 24.0077 19.0236L24.8898 17.8475C25.0212 17.6723 25.0114 17.4289 24.8663 17.2648L24.5087 16.8606C24.4565 16.8015 24.4202 16.7301 24.4034 16.653L24.1427 15.4561C24.0802 15.1693 23.7465 15.0377 23.505 15.2047C23.234 15.3921 22.8635 15.2019 22.8579 14.8725L22.8334 13.4447C22.8322 13.3731 22.8477 13.3021 22.8786 13.2375L23.5273 11.8827C23.5583 11.818 23.5737 11.7471 23.5725 11.6755L23.5402 9.78947C23.537 9.60077 23.4192 9.43305 23.2428 9.36597L20.1816 8.20183C19.9119 8.09926 19.6152 8.26658 19.5635 8.55047ZM15.8994 22.3415L12.3448 25.9221C12.0787 26.1902 12.2296 26.6469 12.6031 26.7036L13.0866 26.777C13.2056 26.7951 13.3271 26.7659 13.4249 26.6957L17.3983 23.8448C17.5316 23.7491 17.6041 23.5898 17.5887 23.4263L17.4667 22.1363C17.4343 21.7947 17.0539 21.6066 16.7628 21.7882L15.9826 22.2751C15.9524 22.294 15.9245 22.3163 15.8994 22.3415ZM22.2475 26.1227L21.5919 25.6856C21.3782 25.5431 21.0893 25.6025 20.9491 25.8177L19.6941 27.7444C19.6765 27.7716 19.656 27.7967 19.633 27.8196L19.1533 28.2972C19.0911 28.3591 19.0479 28.4375 19.0286 28.5232L18.2382 32.0436C18.1781 32.3111 18.4714 32.5176 18.703 32.371L19.2836 32.0033C19.3689 31.9493 19.4342 31.8687 19.4694 31.7739L20.2364 29.706C20.2596 29.6434 20.2962 29.5866 20.3435 29.5394L20.6454 29.2389C20.7862 29.0987 21.0009 29.0644 21.1783 29.1536L22.6542 29.8956C22.7636 29.9506 22.8466 30.0468 22.8851 30.163L23.2175 31.1676C23.273 31.3355 23.4196 31.4568 23.5949 31.4801L24.9368 31.6584C25.0915 31.679 25.246 31.62 25.3477 31.5017L26.0593 30.6735C26.1649 30.5506 26.1983 30.3814 26.1475 30.2277L25.7901 29.1476C25.7614 29.0611 25.7591 28.968 25.7832 28.8802L26.0679 27.8455C26.0856 27.7811 26.1713 27.7683 26.207 27.8247L26.7059 28.6125C26.8258 28.8019 27.1016 28.8036 27.2238 28.6156L27.6336 27.9852L28.2496 27.0379C28.286 26.9819 28.3098 26.9187 28.3194 26.8526L28.6337 24.6865C28.6592 24.5111 28.5819 24.3366 28.4349 24.2375L26.6357 23.025C26.4064 22.8705 26.0935 22.9509 25.9672 23.1969L25.1511 24.7859C25.1283 24.8303 25.0917 24.8661 25.0468 24.888L22.4765 26.1382C22.4028 26.174 22.3157 26.1681 22.2475 26.1227Z" fill="#89F2F6"/>
</svg>
