<svg width="40" height="41" viewBox="0 0 40 41" fill="none" xmlns="http://www.w3.org/2000/svg">
<path opacity="0.4" d="M11.8211 18.387C11.6371 19.0809 11.5391 19.8098 11.5391 20.5616C11.5391 21.343 11.645 22.0997 11.8432 22.818M17.7442 28.719C18.4625 28.9173 19.2192 29.0232 20.0006 29.0232C20.782 29.0232 21.5387 28.9173 22.257 28.719M28.1801 22.7363C28.3641 22.0423 28.4621 21.3134 28.4621 20.5616C28.4621 19.8098 28.3641 19.0809 28.1801 18.387M22.257 12.4043C21.5387 12.206 20.782 12.1001 20.0006 12.1001C19.2192 12.1001 18.4625 12.206 17.7442 12.4043" stroke="#1A8181" stroke-width="1.69231"/>
<path fill-rule="evenodd" clip-rule="evenodd" d="M11.4616 6.56088C8.44523 6.56088 6.00002 9.0061 6.00002 12.0224C6.00002 15.0387 8.44523 17.484 11.4616 17.484C14.4779 17.484 16.9231 15.0387 16.9231 12.0224C16.9231 9.0061 14.4779 6.56088 11.4616 6.56088ZM4.6154 12.0224C4.6154 8.2414 7.68053 5.17627 11.4616 5.17627C15.2426 5.17627 18.3077 8.2414 18.3077 12.0224C18.3077 15.8034 15.2426 18.8686 11.4616 18.8686C7.68053 18.8686 4.6154 15.8034 4.6154 12.0224ZM9.50309 9.48361C9.50309 9.14374 9.77861 8.86822 10.1185 8.86822H12.1945C13.2691 8.86822 14.1721 9.60316 14.4281 10.5978H14.7562C15.0748 10.5978 15.3331 10.8561 15.3331 11.1747C15.3331 11.4934 15.0748 11.7517 14.7562 11.7517H14.428C14.1718 12.7461 13.269 13.4808 12.1945 13.4808H10.7541L10.7623 15.0724C10.764 15.4122 10.4899 15.6893 10.1501 15.6911C9.81021 15.693 9.53328 15.419 9.53152 15.0791L9.52087 13.0128C9.50925 12.9656 9.50309 12.9162 9.50309 12.8654C9.50309 12.8168 9.50873 12.7695 9.51938 12.7241L9.51437 11.7517H8.96089C8.64226 11.7517 8.38397 11.4934 8.38397 11.1747C8.38397 10.8561 8.64226 10.5978 8.96089 10.5978H9.50842L9.5031 9.5656C9.50302 9.55128 9.50344 9.53708 9.50433 9.523C9.50351 9.50998 9.50309 9.49684 9.50309 9.48361ZM10.7452 11.7517L10.7477 12.25H12.1945C12.5761 12.25 12.9113 12.0513 13.1022 11.7517H10.7452ZM13.1025 10.5978H10.7392L10.7366 10.099H12.1945C12.5763 10.099 12.9117 10.2979 13.1025 10.5978ZM28.384 6.56088C25.3677 6.56088 22.9224 9.0061 22.9224 12.0224C22.9224 15.0387 25.3677 17.484 28.384 17.484C31.4003 17.484 33.8455 15.0387 33.8455 12.0224C33.8455 9.0061 31.4003 6.56088 28.384 6.56088ZM21.5378 12.0224C21.5378 8.2414 24.603 5.17627 28.384 5.17627C32.165 5.17627 35.2301 8.2414 35.2301 12.0224C35.2301 15.8034 32.165 18.8686 28.384 18.8686C24.603 18.8686 21.5378 15.8034 21.5378 12.0224ZM28.3901 8.16278C28.7299 8.16278 29.0054 8.43829 29.0054 8.77816V8.94739C29.0054 8.96602 29.0046 8.98445 29.003 9.00265C29.4421 9.08638 29.8395 9.25308 30.1952 9.49199C30.3381 9.58092 30.481 9.76768 30.481 10.0345C30.481 10.3902 30.212 10.6659 29.8758 10.6659C29.7496 10.6659 29.6488 10.6303 29.5479 10.5681C29.1191 10.3013 28.7156 10.1501 28.3121 10.1501C27.8161 10.1501 27.5555 10.3902 27.5555 10.6926V10.7104C27.5555 11.1195 27.8077 11.2529 28.8249 11.5286C30.0187 11.8576 30.6912 12.3112 30.6912 13.3962V13.4139C30.6912 14.4964 30.0079 15.1629 28.9856 15.3119C28.9861 15.3222 28.9864 15.3326 28.9864 15.343V15.5123C28.9864 15.8521 28.7109 16.1277 28.371 16.1277C28.0311 16.1277 27.7556 15.8521 27.7556 15.5123V15.343C27.7556 15.3153 27.7575 15.2879 27.761 15.2611C27.251 15.1506 26.7573 14.9291 26.3196 14.5968C26.1767 14.49 26.0758 14.2944 26.0758 14.0809C26.0758 13.7252 26.3449 13.4495 26.6811 13.4495C26.8493 13.4495 26.967 13.5118 27.051 13.574C27.4966 13.9209 27.9842 14.1343 28.5559 14.1343C29.0855 14.1343 29.405 13.912 29.405 13.5473V13.5296C29.405 13.1827 29.2032 13.0049 28.2196 12.7381C27.0342 12.4179 26.2692 12.0711 26.2692 10.8349V10.8171C26.2692 9.86966 26.8726 9.19132 27.7767 8.99728C27.7753 8.98083 27.7747 8.96419 27.7747 8.94739V8.77816C27.7747 8.43829 28.0502 8.16278 28.3901 8.16278ZM22.9225 28.9458C22.9225 25.9295 25.3677 23.4843 28.3841 23.4843C31.4004 23.4843 33.8456 25.9295 33.8456 28.9458C33.8456 31.9622 31.4004 34.4074 28.3841 34.4074C25.3677 34.4074 22.9225 31.9622 22.9225 28.9458ZM28.3841 22.0997C24.603 22.0997 21.5379 25.1648 21.5379 28.9458C21.5379 32.7269 24.603 35.792 28.3841 35.792C32.1651 35.792 35.2302 32.7269 35.2302 28.9458C35.2302 25.1648 32.1651 22.0997 28.3841 22.0997ZM28.4587 25.2538C27.2291 25.2538 26.2545 26.2912 26.3312 27.5184L26.382 28.3309H26.0757C25.7358 28.3309 25.4603 28.6064 25.4603 28.9463C25.4603 29.2862 25.7358 29.5617 26.0757 29.5617H26.4589L26.5384 30.8329C26.5545 31.0909 26.3989 31.319 26.1713 31.4076H26.0757C25.9608 31.4076 25.8533 31.439 25.7612 31.4939C25.5329 31.5896 25.3759 31.8187 25.3842 32.0809C25.3949 32.4206 25.6789 32.6873 26.0186 32.6766C26.1279 32.6732 26.2345 32.6601 26.3377 32.6383H29.9218C30.2617 32.6383 30.5372 32.3628 30.5372 32.0229C30.5372 31.6831 30.2617 31.4076 29.9218 31.4076H27.6888C27.7526 31.2029 27.781 30.9832 27.7668 30.7561L27.6921 29.5617H28.3834C28.7232 29.5617 28.9988 29.2862 28.9988 28.9463C28.9988 28.6064 28.7232 28.3309 28.3834 28.3309H27.6152L27.5596 27.4416C27.5272 26.923 27.9391 26.4846 28.4587 26.4846C28.9268 26.4845 29.3063 26.864 29.3063 27.3321V27.9203C29.3063 28.2602 29.5818 28.5357 29.9216 28.5357C30.2615 28.5357 30.537 28.2602 30.537 27.9203V27.3321C30.537 26.1843 29.6065 25.2538 28.4587 25.2538ZM11.4614 23.4843C8.44506 23.4843 5.99985 25.9295 5.99985 28.9458C5.99985 31.9621 8.44506 34.4074 11.4614 34.4074C14.4777 34.4074 16.9229 31.9621 16.9229 28.9458C16.9229 25.9295 14.4777 23.4843 11.4614 23.4843ZM4.61523 28.9458C4.61523 25.1648 7.68036 22.0997 11.4614 22.0997C15.2424 22.0997 18.3075 25.1648 18.3075 28.9458C18.3075 32.7268 15.2424 35.792 11.4614 35.792C7.68036 35.792 4.61523 32.7268 4.61523 28.9458ZM14.2035 26.2032C13.9631 25.9629 13.5735 25.9629 13.3332 26.2032L11.4608 28.0757L9.58836 26.2032C9.34804 25.9629 8.9584 25.9629 8.71808 26.2032C8.47776 26.4436 8.47776 26.8332 8.71808 27.0735L10.8454 29.2009L10.8455 29.8692H9.92209C9.58222 29.8692 9.3067 30.1448 9.3067 30.4846C9.3067 30.8245 9.58222 31.1 9.92209 31.1H10.8456L10.8458 32.0229C10.8458 32.3628 11.1214 32.6383 11.4612 32.6382C11.8011 32.6382 12.0766 32.3627 12.0765 32.0228L12.0764 31.1H12.999C13.3389 31.1 13.6144 30.8245 13.6144 30.4846C13.6144 30.1448 13.3389 29.8692 12.999 29.8692H12.0763L12.0762 29.2008L14.2035 27.0735C14.4438 26.8332 14.4438 26.4436 14.2035 26.2032Z" fill="#1A8181"/>
</svg>
