<svg width="40" height="41" viewBox="0 0 40 41" fill="none" xmlns="http://www.w3.org/2000/svg">
<path fill-rule="evenodd" clip-rule="evenodd" d="M7.0943 22.158C7.0943 14.7449 12.8985 8.78424 19.9993 8.78424C27.1001 8.78424 32.9043 14.7449 32.9043 22.158C32.9043 26.1029 31.2576 29.6744 28.6457 32.1302C28.5947 32.1781 28.5529 32.1921 28.5162 32.1967C28.4725 32.2022 28.4046 32.197 28.3173 32.1591C28.1314 32.0785 27.9505 31.8893 27.8812 31.6549C26.8538 28.1765 23.7488 25.4692 19.9993 25.4692C16.2498 25.4692 13.1448 28.1765 12.1174 31.6549C12.0481 31.8893 11.8672 32.0785 11.6813 32.1591C11.594 32.197 11.526 32.2022 11.4824 32.1967C11.4457 32.1921 11.4039 32.1781 11.3529 32.1302C8.741 29.6744 7.0943 26.1029 7.0943 22.158ZM19.9993 7.09424C11.9122 7.09424 5.4043 13.8654 5.4043 22.158C5.4043 26.5767 7.24918 30.5915 10.1953 33.3615C10.8495 33.9765 11.6931 33.996 12.3534 33.7097C12.9922 33.4328 13.5251 32.855 13.7381 32.1336C14.5844 29.2685 17.1028 27.1592 19.9993 27.1592C22.8958 27.1592 25.4142 29.2685 26.2605 32.1336C26.4735 32.855 27.0064 33.4328 27.6452 33.7097C28.3055 33.996 29.1491 33.9765 29.8033 33.3615C32.7494 30.5915 34.5943 26.5767 34.5943 22.158C34.5943 13.8654 28.0864 7.09424 19.9993 7.09424ZM17.0943 17.9392C17.0943 16.3349 18.3949 15.0342 19.9993 15.0342C21.6037 15.0342 22.9043 16.3349 22.9043 17.9392C22.9043 19.5436 21.6037 20.8442 19.9993 20.8442C18.3949 20.8442 17.0943 19.5436 17.0943 17.9392ZM19.9993 13.3442C17.4615 13.3442 15.4043 15.4015 15.4043 17.9392C15.4043 20.477 17.4615 22.5342 19.9993 22.5342C22.537 22.5342 24.5943 20.477 24.5943 17.9392C24.5943 15.4015 22.537 13.3442 19.9993 13.3442Z" fill="white"/>
</svg>
