<svg width="41" height="41" viewBox="0 0 41 41" fill="none" xmlns="http://www.w3.org/2000/svg">
<path fill-rule="evenodd" clip-rule="evenodd" d="M25.8835 4.20874C27.2005 4.20874 28.2681 5.27637 28.2681 6.59336V9.87098V32.7472C28.2681 34.0642 27.2005 35.1318 25.8835 35.1318H25.6376L24.0528 33.4532C24.1022 33.4442 24.1531 33.4395 24.2052 33.4395H25.8835C26.2658 33.4395 26.5758 33.1296 26.5758 32.7472V9.87098V6.59336C26.5758 6.211 26.2658 5.90105 25.8835 5.90105H11.2681C10.8857 5.90105 10.5758 6.211 10.5758 6.59336V14.2857C10.5758 14.753 10.197 15.1318 9.72963 15.1318C9.26232 15.1318 8.88348 14.753 8.88348 14.2857V6.59336C8.88348 5.27637 9.95111 4.20874 11.2681 4.20874H25.8835ZM15.3494 33.4395H11.2681C10.8857 33.4395 10.5758 33.1296 10.5758 32.7472V27.3626C10.5758 26.8953 10.197 26.5164 9.72963 26.5164C9.26232 26.5164 8.88348 26.8953 8.88348 27.3626V32.7472C8.88348 34.0642 9.95111 35.1318 11.2681 35.1318H16.1632C16.2663 35.1318 16.365 35.1134 16.4564 35.0796L15.3494 33.4395ZM10.3342 24.0603C10.0338 24.3607 9.54676 24.3607 9.24635 24.0603L6.87765 21.6916C6.57724 21.3912 6.57724 20.9042 6.87765 20.6038C7.17805 20.3034 7.6651 20.3034 7.9655 20.6038L8.95995 21.5982L8.95995 18.1318C8.95995 17.7069 9.30435 17.3625 9.72918 17.3625C10.154 17.3625 10.4984 17.7069 10.4984 18.1318L10.4984 21.7204L11.6151 20.6038C11.9155 20.3034 12.4025 20.3034 12.7029 20.6038C13.0033 20.9042 13.0033 21.3912 12.7029 21.6916L10.3342 24.0603ZM17.4447 18.1318C16.9976 18.1318 16.6527 17.7975 16.6527 17.3766V12.7472H15.8835C15.4586 12.7472 15.1143 12.4028 15.1143 11.978C15.1143 11.5531 15.4586 11.2087 15.8835 11.2087H16.6527V9.66867C16.6527 9.23533 16.9976 8.90105 17.4447 8.90105H19.4089C21.2577 8.90105 22.4897 9.79796 22.7535 11.2087H23.5758C24.0006 11.2087 24.345 11.5531 24.345 11.978C24.345 12.4028 24.0006 12.7472 23.5758 12.7472H22.6753C22.2537 14.1645 20.8655 15.0549 19.2301 15.0549H18.2238V17.3766C18.2238 17.7975 17.8789 18.1318 17.4447 18.1318ZM21.093 11.2087C20.8386 10.6022 20.1844 10.2877 19.2812 10.2877H18.2238V11.2087H21.093ZM18.2238 12.7472H20.9661C20.6565 13.2799 20.0665 13.6806 19.2812 13.6806H18.2238V12.7472Z" fill="white"/>
<path opacity="0.4" fill-rule="evenodd" clip-rule="evenodd" d="M27.5561 21.3074C27.1857 21.0224 26.6545 21.0917 26.3695 21.4621C26.0846 21.8325 26.1539 22.3638 26.5243 22.6487C29.4687 24.9136 31.1941 28.4176 31.1941 32.1323V37.278C31.1941 37.7453 31.5729 38.1242 32.0402 38.1242C32.5075 38.1242 32.8864 37.7453 32.8864 37.278V32.1323C32.8864 27.8922 30.917 23.8926 27.5561 21.3074ZM17.0456 30.0135C17.6196 29.7208 18.3179 29.8416 18.7603 30.3101L25.8873 37.8588C26.2081 38.1986 26.7436 38.214 27.0834 37.8932C27.4232 37.5724 27.4386 37.0368 27.1178 36.697L19.9908 29.1483C19.0326 28.1335 17.5201 27.8719 16.2767 28.506C14.5947 29.3638 14.043 31.5002 15.0992 33.0652L18.2619 37.7513C18.5234 38.1386 19.0493 38.2407 19.4367 37.9793C19.824 37.7179 19.9261 37.1919 19.6647 36.8046L16.5019 32.1184C16.0143 31.3959 16.269 30.4096 17.0456 30.0135Z" fill="white"/>
</svg>
