<svg width="31" height="31" viewBox="0 0 31 31" fill="none" xmlns="http://www.w3.org/2000/svg">
<rect x="4.53906" y="24.1538" width="21.9231" height="2.30769" rx="0.469804" stroke="#2059A8" stroke-width="1.26923"/>
<path d="M6.84668 12.6152V24.1537" stroke="#2059A8" stroke-width="1.26923" stroke-linecap="round" stroke-linejoin="round"/>
<path d="M10.3076 12.6152V24.1537" stroke="#2059A8" stroke-width="1.26923" stroke-linecap="round" stroke-linejoin="round"/>
<path d="M13.7695 12.6152V24.1537" stroke="#2059A8" stroke-width="1.26923" stroke-linecap="round" stroke-linejoin="round"/>
<path d="M17.2305 12.6152V24.1537" stroke="#2059A8" stroke-width="1.26923" stroke-linecap="round" stroke-linejoin="round"/>
<path d="M20.6924 12.6152V24.1537" stroke="#2059A8" stroke-width="1.26923" stroke-linecap="round" stroke-linejoin="round"/>
<path d="M24.1533 12.6152V24.1537" stroke="#2059A8" stroke-width="1.26923" stroke-linecap="round" stroke-linejoin="round"/>
<path d="M5.11599 9.92319H6.94891C7.05947 9.92319 7.1677 9.89142 7.26072 9.83167L15.1888 4.73887C15.3788 4.61684 15.6224 4.61684 15.8124 4.73887L23.7405 9.83167C23.8335 9.89142 23.9417 9.92319 24.0523 9.92319H25.8852C26.2038 9.92319 26.4621 10.1815 26.4621 10.5001V12.0386C26.4621 12.3572 26.2038 12.6155 25.8852 12.6155H5.11599C4.79736 12.6155 4.53906 12.3572 4.53906 12.0386V10.5001C4.53906 10.1815 4.79736 9.92319 5.11599 9.92319Z" stroke="#2059A8" stroke-width="1.26923" stroke-linecap="round" stroke-linejoin="round"/>
<circle opacity="0.4" cx="1.15385" cy="1.15385" r="1.15385" transform="matrix(1 0 0 -1 14.3467 10.8848)" fill="#2059A8"/>
</svg>
