<svg width="36" height="35" viewBox="0 0 36 35" fill="none" xmlns="http://www.w3.org/2000/svg">
<path fill-rule="evenodd" clip-rule="evenodd" d="M10.5959 8.68286C10.187 8.68286 9.85547 9.01434 9.85547 9.42325C9.85547 9.83215 10.187 10.1636 10.5959 10.1636H30.7882C31.1227 10.1636 31.3939 10.4348 31.3939 10.7694V24.2309C31.3939 24.5655 31.1227 24.8367 30.7882 24.8367H18.0229H10.5959C10.187 24.8367 9.85547 25.1682 9.85547 25.5771C9.85547 25.986 10.187 26.3175 10.5959 26.3175H18.0229H30.7882C31.9405 26.3175 32.8747 25.3833 32.8747 24.2309V10.7694C32.8747 9.61704 31.9405 8.68286 30.7882 8.68286H10.5959ZM20.0035 15.2338L20.0036 16.0109H22.8933C22.672 15.5508 22.2015 15.2338 21.6577 15.2338H20.0035ZM18.3459 16.0109H18.6844L18.6843 14.6456C18.6843 14.4157 18.8019 14.2133 18.9802 14.0952C19.0835 14.0208 19.2103 13.9769 19.3473 13.9769H21.6577C22.9033 13.9769 23.9484 14.8443 24.2176 16.0109H24.6196C24.9472 16.0109 25.2128 16.2765 25.2128 16.604C25.2128 16.9316 24.9472 17.1972 24.6196 17.1972H24.2177C23.9491 18.3611 22.9061 19.2312 21.6577 19.2312H20.0038L20.0038 20.9652C20.0039 21.3295 19.7086 21.6248 19.3443 21.6249C18.98 21.6249 18.6846 21.3296 18.6846 20.9653L18.6844 17.1972H18.3459C18.0183 17.1972 17.7527 16.9316 17.7527 16.604C17.7527 16.2765 18.0183 16.0109 18.3459 16.0109ZM21.6577 17.9743C22.2025 17.9743 22.6724 17.6566 22.8933 17.1972H20.0037L20.0037 17.9743H21.6577Z" fill="#0F3F94"/>
<path opacity="0.4" fill-rule="evenodd" clip-rule="evenodd" d="M7.22867 12.7207C6.81976 12.7207 6.48828 13.0522 6.48828 13.4611C6.48828 13.87 6.81976 14.2015 7.22867 14.2015L11.2671 14.2015C11.676 14.2015 12.0075 13.87 12.0075 13.4611C12.0075 13.0522 11.676 12.7207 11.2671 12.7207L7.22867 12.7207ZM4.47168 17.4996C4.47168 17.0907 4.80316 16.7592 5.21206 16.7592L10.5967 16.7592C11.0056 16.7592 11.3371 17.0907 11.3371 17.4996C11.3371 17.9085 11.0056 18.24 10.5967 18.24L5.21206 18.24C4.80316 18.24 4.47168 17.9085 4.47168 17.4996ZM3.125 21.538C3.125 21.1291 3.45648 20.7976 3.86538 20.7976L10.5962 20.7976C11.0051 20.7976 11.3365 21.1291 11.3365 21.538C11.3365 21.9469 11.0051 22.2783 10.5962 22.2783H3.86538C3.45648 22.2783 3.125 21.9469 3.125 21.538Z" fill="#0F3F94"/>
</svg>
