<svg width="31" height="31" viewBox="0 0 31 31" fill="none" xmlns="http://www.w3.org/2000/svg">
<path fill-rule="evenodd" clip-rule="evenodd" d="M4.26886 5.34597C4.26886 4.7512 4.75102 4.26904 5.34578 4.26904H23.6535C24.2482 4.26904 24.7304 4.7512 24.7304 5.34597V12.346C24.7304 12.9407 24.2482 13.4229 23.6535 13.4229H23.115V13.423V15.0767C24.9411 15.3384 26.3448 16.9091 26.3448 18.8076C26.3448 19.6313 26.0806 20.3932 25.6324 21.0133C25.7838 20.7649 25.8745 20.4751 25.8832 20.1639C25.8877 20.0302 25.8042 19.9008 25.6596 19.8546C25.6325 19.8455 25.604 19.8416 25.5763 19.8416L24.4784 19.8114C24.3042 19.8072 24.1587 19.9436 24.1545 20.1179C24.1502 20.2922 24.2866 20.4377 24.4609 20.4419L24.4626 20.4424L25.196 20.4616C25.0406 20.9315 24.5765 21.2577 24.0522 21.2095C23.4898 21.1585 23.0523 20.6756 23.054 20.1111C23.0558 19.4911 23.5681 18.9987 24.1838 19.016C24.3927 19.0221 24.5897 19.086 24.7591 19.1979C24.8845 19.2813 25.0482 19.2698 25.1572 19.1661C25.3027 19.0297 25.2873 18.791 25.1213 18.6801C24.6884 18.3868 24.134 18.2992 23.5829 18.4746C23.1072 18.6241 22.7255 18.9872 22.5473 19.4527C22.3809 19.8884 22.3884 20.3189 22.5207 20.6922H23.115V21.5003C23.3912 21.7079 23.732 21.835 24.1033 21.8454C24.5664 21.8585 24.9927 21.6879 25.312 21.3998C24.7418 22.0015 23.9753 22.4153 23.115 22.5386V25.1612H25.7533C26.0804 25.1612 26.3456 25.4264 26.3456 25.7535C26.3456 26.0806 26.0804 26.3458 25.7533 26.3458H22.0595L22.038 26.346H6.96112L6.93965 26.3458H3.24563C2.91851 26.3458 2.65332 26.0806 2.65332 25.7535C2.65332 25.4264 2.91851 25.1612 3.24563 25.1612H5.88419V13.423V13.4229H5.34579C4.75102 13.4229 4.26886 12.9407 4.26886 12.346V5.34597ZM22.038 22.5388C20.211 22.278 18.8063 20.7068 18.8063 18.8076C18.8063 16.9085 20.211 15.3373 22.038 15.0765V13.423H6.96112L6.96112 25.1612H22.038V22.5388ZM23.6535 5.34597H5.34579V6.96138H23.6535V5.34597ZM5.34579 9.65371V8.0383H23.6535V9.65371H5.34579ZM5.34579 10.7306V12.346H23.6535V10.7306H5.34579ZM12.3452 16.1153C11.453 16.1153 10.7298 16.8385 10.7298 17.7307V22.3076C10.7298 22.4563 10.8503 22.5768 10.999 22.5768H15.8452C15.9938 22.5768 16.1144 22.4563 16.1144 22.3076V17.7307C16.1144 16.8385 15.3912 16.1153 14.499 16.1153H12.3452ZM9.65285 17.7307C9.65285 16.2438 10.8582 15.0384 12.3452 15.0384H14.499C15.9859 15.0384 17.1913 16.2438 17.1913 17.7307V22.3076C17.1913 23.0511 16.5886 23.6538 15.8452 23.6538H10.999C10.2555 23.6538 9.65285 23.0511 9.65285 22.3076V17.7307Z" fill="#2059A8"/>
<path opacity="0.4" fill-rule="evenodd" clip-rule="evenodd" d="M13.422 20.4232C14.3142 20.4232 15.0374 19.6999 15.0374 18.8078C15.0374 17.9156 14.3142 17.1924 13.422 17.1924C12.5299 17.1924 11.8066 17.9156 11.8066 18.8078C11.8066 19.6999 12.5299 20.4232 13.422 20.4232ZM12.8836 20.9617C12.2888 20.9617 11.8066 21.4439 11.8066 22.0386V22.5771H15.0374V22.0386C15.0374 21.4439 14.5553 20.9617 13.9605 20.9617H12.8836Z" fill="#2059A8"/>
</svg>
