<svg width="32" height="32" viewBox="0 0 32 32" fill="none" xmlns="http://www.w3.org/2000/svg">
<path opacity="0.4" fill-rule="evenodd" clip-rule="evenodd" d="M12.3082 3.75375C11.6625 3.75375 11.139 4.27723 11.139 4.92298V11.9999C11.139 12.3738 10.8359 12.6768 10.4621 12.6768C10.0882 12.6768 9.78516 12.3738 9.78516 11.9999V4.92298C9.78516 3.52952 10.9148 2.3999 12.3082 2.3999H23.3852C24.7786 2.3999 25.9082 3.52953 25.9082 4.92298V19.104C25.9082 19.8989 25.015 20.3661 24.3621 19.9129L22.8932 18.8931L22.2308 19.5555C21.9664 19.8198 21.5378 19.8198 21.2735 19.5555C21.0091 19.2911 21.0091 18.8625 21.2735 18.5982L22.1541 17.7176C22.4909 17.3808 23.0205 17.3334 23.4118 17.605L24.5544 18.3982V4.92298C24.5544 4.27723 24.0309 3.75375 23.3852 3.75375H12.3082ZM13.5394 6.76916C13.5394 6.4293 13.8149 6.15378 14.1548 6.15378H21.5394C21.8793 6.15378 22.1548 6.4293 22.1548 6.76916C22.1548 7.10903 21.8793 7.38455 21.5394 7.38455H14.1548C13.8149 7.38455 13.5394 7.10903 13.5394 6.76916ZM19.0782 8.6156C18.7384 8.6156 18.4629 8.89111 18.4629 9.23098C18.4629 9.57085 18.7384 9.84637 19.0782 9.84637H21.5398C21.8797 9.84637 22.1552 9.57085 22.1552 9.23098C22.1552 8.89111 21.8797 8.6156 21.5398 8.6156H19.0782Z" fill="#2059A8"/>
<path fill-rule="evenodd" clip-rule="evenodd" d="M20.862 27.0766C20.862 27.7223 20.3385 28.2458 19.6928 28.2458H8.61585C7.9701 28.2458 7.44662 27.7223 7.44662 27.0766L7.44662 20.3317L7.44662 13.0599L8.58034 13.8738C8.97081 14.1541 9.50662 14.1116 9.84791 13.7731L10.8329 12.7961L12.0397 13.822C12.4074 14.1346 12.9474 14.1346 13.3151 13.822L14.5219 12.7961L15.4749 13.7414C15.8588 14.1221 16.4778 14.1221 16.8617 13.7414L17.7795 12.8311L18.7157 13.7596C19.0757 14.1166 19.6479 14.1419 20.038 13.818L20.862 13.1339L20.862 27.0766ZM19.6928 29.5997C21.0862 29.5997 22.2159 28.47 22.2159 27.0766L22.2159 12.3474C22.2159 11.5134 21.2439 11.0571 20.6023 11.5898L19.431 12.5623L18.4728 11.612C18.089 11.2313 17.47 11.2313 17.0861 11.612L16.1683 12.5223L15.2344 11.5961C14.8713 11.236 14.293 11.2138 13.9034 11.545L12.6774 12.5872L11.4514 11.545C11.0618 11.2138 10.4834 11.236 10.1203 11.5961L9.11624 12.5919L7.6516 11.5405C7.00016 11.0728 6.09277 11.5384 6.09277 12.3403L6.09277 20.3317L6.09277 27.0766C6.09277 28.47 7.22239 29.5997 8.61585 29.5997L19.6928 29.5997ZM15.386 22.1537C15.0461 22.1537 14.7706 22.4292 14.7706 22.7691C14.7706 23.1089 15.0461 23.3845 15.386 23.3845H17.8475C18.1874 23.3845 18.4629 23.1089 18.4629 22.7691C18.4629 22.4292 18.1874 22.1537 17.8475 22.1537H15.386ZM9.84713 25.2308C9.84713 24.8909 10.1227 24.6154 10.4625 24.6154H17.8471C18.187 24.6154 18.4625 24.8909 18.4625 25.2308C18.4625 25.5707 18.187 25.8462 17.8471 25.8462H10.4625C10.1227 25.8462 9.84713 25.5707 9.84713 25.2308ZM10.4613 22.7801C10.4613 23.1169 10.7372 23.3843 11.0949 23.3843C11.4423 23.3843 11.7182 23.1169 11.7182 22.7801V20.9228H12.5232C13.8315 20.9228 14.942 20.2105 15.2794 19.0768H16.0003C16.3402 19.0768 16.6157 18.8013 16.6157 18.4614C16.6157 18.1215 16.3402 17.846 16.0003 17.846H15.342C15.131 16.7173 14.1454 15.9997 12.6663 15.9997H11.0949C10.7372 15.9997 10.4613 16.2671 10.4613 16.6138V17.846H9.8465C9.50663 17.846 9.23112 18.1215 9.23112 18.4614C9.23112 18.8013 9.50663 19.0768 9.8465 19.0768H10.4613V22.7801ZM12.5641 17.109C13.2868 17.109 13.8102 17.3607 14.0136 17.846H11.7182V17.109H12.5641ZM13.912 19.0768H11.7182V19.8233H12.5641C13.1923 19.8233 13.6642 19.5029 13.912 19.0768Z" fill="#2059A8"/>
</svg>
