<svg width="32" height="32" viewBox="0 0 32 32" fill="none" xmlns="http://www.w3.org/2000/svg">
<path fill-rule="evenodd" clip-rule="evenodd" d="M11.0777 5.54027C11.0775 4.52049 11.9041 3.69366 12.9239 3.69366H14.154C14.4939 3.69366 14.7694 3.41814 14.7694 3.07828C14.7694 2.73841 14.4939 2.46289 14.154 2.46289L12.9239 2.46289C11.2242 2.46289 9.84652 3.84094 9.84694 5.54058L9.84892 13.5416C9.84934 15.24 11.2265 16.6165 12.9249 16.6161C14.6234 16.6158 16 15.2385 15.9995 13.54L15.9986 10.1764V10.1763L15.9984 8.61436C15.9982 7.59536 15.1721 6.76938 14.1531 6.76939C13.134 6.76939 12.3079 7.59553 12.3079 8.61463V12.3079C12.3079 12.6478 12.5834 12.9233 12.9233 12.9233C13.2631 12.9233 13.5386 12.6478 13.5386 12.3079V8.61463C13.5386 8.27526 13.8138 8.00016 14.1531 8.00015C14.4924 8.00015 14.7675 8.27521 14.7676 8.61454L14.7678 10.1766V10.1767L14.7687 13.5403C14.769 14.5591 13.9433 15.3851 12.9246 15.3854C11.9059 15.3856 11.0799 14.56 11.0797 13.5413L11.0777 5.54027ZM24 6.15388V27.077C24 28.4364 22.8979 29.5385 21.5385 29.5385H10.4615C9.10207 29.5385 8 28.4364 8 27.077V19.077H20.3077C20.6476 19.077 20.9231 18.8014 20.9231 18.4616V3.69234H21.5385C22.8979 3.69234 24 4.79441 24 6.15388ZM15.8423 26.6236C15.8423 26.8761 16.0429 27.0767 16.3029 27.0767C16.5554 27.0767 16.756 26.8761 16.756 26.6236V25.2305H17.7886C18.7412 25.2305 19.5496 24.6946 19.7934 23.8419H20.1498C20.4022 23.8419 20.6069 23.6372 20.6069 23.3847C20.6069 23.1322 20.4022 22.9276 20.1498 22.9276H19.8386C19.687 22.0784 18.9698 21.5382 17.8926 21.5382H16.3029C16.0429 21.5382 15.8423 21.7388 15.8423 21.9988V22.9276H15.2267C14.9742 22.9276 14.7695 23.1322 14.7695 23.3847C14.7695 23.6372 14.9742 23.8419 15.2267 23.8419H15.8423V26.6236ZM17.8183 22.3702C18.3459 22.3702 18.7273 22.5606 18.8739 22.9276H16.756V22.3702H17.8183ZM18.8005 23.8419H16.756V24.406H17.8183C18.277 24.406 18.621 24.1635 18.8005 23.8419Z" fill="#2059A8"/>
<path opacity="0.2" fill-rule="evenodd" clip-rule="evenodd" d="M11.0777 5.54012C11.0775 4.52034 11.9041 3.69351 12.9239 3.69351L14.154 3.69351C14.1666 3.69351 14.1791 3.69313 14.1916 3.69238H20.9231V18.4616C20.9231 18.8015 20.6476 19.077 20.3077 19.077H8V4.30777C8 3.9679 8.27552 3.69238 8.61538 3.69238H10.463C10.076 4.20702 9.84677 4.84696 9.84694 5.54043L9.84892 13.5414C9.84934 15.2398 11.2265 16.6163 12.9249 16.616C14.6234 16.6156 16 15.2384 15.9995 13.5398L15.9986 10.1763V10.1762L15.9984 8.61421C15.9982 7.59521 15.1721 6.76923 14.1531 6.76924C13.134 6.76924 12.3079 7.59538 12.3079 8.61448V12.3078C12.3079 12.6476 12.5834 12.9232 12.9233 12.9232C13.2631 12.9232 13.5386 12.6476 13.5386 12.3078V8.61448C13.5386 8.27511 13.8138 8.00001 14.1531 8C14.4924 8 14.7675 8.27506 14.7676 8.61439L14.7678 10.1764V10.1765L14.7687 13.5402C14.769 14.5589 13.9433 15.385 12.9246 15.3852C11.9059 15.3854 11.0799 14.5598 11.0797 13.5411L11.0777 5.54012Z" fill="#2059A8"/>
</svg>
