<svg width="32" height="32" viewBox="0 0 32 32" fill="none" xmlns="http://www.w3.org/2000/svg">
<path opacity="0.4" fill-rule="evenodd" clip-rule="evenodd" d="M20.102 6.52765L16.0004 8.35621L11.8988 6.52765C9.458 5.43951 6.88575 7.76631 7.72449 10.3037L7.98013 11.077H16.0002H16.0006H24.0207L24.2764 10.3037C25.1151 7.76631 22.5429 5.43951 20.102 6.52765ZM17.8463 11.6924H14.1539V26.4616H17.8463V11.6924Z" fill="#2059A8"/>
<path fill-rule="evenodd" clip-rule="evenodd" d="M14.2596 10.4617C14.513 9.74458 15.1969 9.23077 16.0008 9.23077C16.8046 9.23077 17.4885 9.74458 17.7419 10.4617H14.2596ZM12.9853 10.4617C13.2704 9.05717 14.5121 8 16.0008 8C17.4894 8 18.7311 9.05717 19.0162 10.4617H25.8469C26.5266 10.4617 27.0777 11.0128 27.0777 11.6925V14.154C27.0777 14.8338 26.5266 15.3848 25.8469 15.3848H25.8458V25.8462C25.8458 26.526 25.2948 27.077 24.6151 27.077H7.38429C6.70455 27.077 6.15352 26.526 6.15352 25.8462V15.3848C5.47428 15.3842 4.92383 14.8334 4.92383 14.154V11.6925C4.92383 11.0128 5.47486 10.4617 6.1546 10.4617H12.9853ZM19.0765 15.3848H24.6151V25.8462H19.0765V15.3848ZM17.8457 15.3848L17.8457 25.8462H14.1546V15.3848H17.8457ZM12.9238 15.3848L12.9238 25.8462H7.38429V15.3848H12.9238ZM19.0765 14.154H25.8469V11.6925H19.0765V14.154ZM17.8457 11.6925V14.154H14.1546V11.6925H17.8457ZM6.1546 11.6925H12.9238V14.154H6.1546V11.6925Z" fill="#2059A8"/>
</svg>
